<?xml version="1.0" encoding="UTF-8"?>
<svg width="32px" height="32px" viewBox="0 0 32 32" version="1.1" xmlns="http://www.w3.org/2000/svg" xmlns:xlink="http://www.w3.org/1999/xlink">
    <title>favicon</title>
    <g id="favicon" stroke="none" stroke-width="1" fill="none" fill-rule="evenodd">
        <g id="logo" transform="translate(8.000000, 8.000000)" fill="#41403F" fill-rule="nonzero">
            <path d="M8,-1.36779477e-13 C3.581722,-1.36779477e-13 0,3.581722 0,8 C0,12.418278 3.581722,16 8,16 C12.418278,16 16,12.418278 16,8 C16,3.581722 12.418278,-1.36779477e-13 8,-1.36779477e-13 Z M8,1.45454545 C11.6149547,1.45454545 14.5454545,4.38504527 14.5454545,8 C14.5454545,11.6149547 11.6149547,14.5454545 8,14.5454545 C4.38504527,14.5454545 1.45454545,11.6149547 1.45454545,8 C1.45454545,4.38504527 4.38504527,1.45454545 8,1.45454545 Z" id="Oval-Copy"></path>
        </g>
    </g>
</svg>